<svg xmlns="http://www.w3.org/2000/svg" width="610.529" height="620.269" viewBox="0 0 610.529 620.269">
    <defs>
        <filter id="Path_25" width="243.52" height="85.846" x="169.68" y="360.174" filterUnits="userSpaceOnUse">
            <feOffset dy="3"/>
            <feGaussianBlur result="blur" stdDeviation="3"/>
            <feFlood flood-opacity=".161"/>
            <feComposite in2="blur" operator="in"/>
            <feComposite in="SourceGraphic"/>
        </filter>
        <style>
            .cls-1,.cls-25,.cls-29,.cls-34{fill:none}.cls-2{fill:#eeb890}.cls-3{fill:#fba169}.cls-4{fill:#f1c4a1}.cls-5,.cls-9{fill:#ae0721}.cls-5{stroke:#ae0721}.cls-10,.cls-11,.cls-5,.cls-6,.cls-8{stroke-miterlimit:10;stroke-width:.25px}.cls-6{fill:#00973d;stroke:#248332}.cls-7{fill:#c50039}.cls-8{fill:#8e0019;stroke:#8e0019}.cls-10{fill:#6f2e87;stroke:#622f88}.cls-11{fill:#e0007a;stroke:#e0007a}.cls-22,.cls-26,.cls-27,.cls-28{fill:#fff}.cls-23{fill:#060706}.cls-24{fill:#26a858}.cls-25,.cls-28{stroke:#911991}.cls-25{stroke-width:2px}.cls-26,.cls-27,.cls-29{stroke:#bb61be}.cls-26{stroke-width:6px}.cls-27{stroke-width:4px}.cls-28,.cls-29{stroke-width:3px}.cls-30{stroke:none}
        </style>
    </defs>
    <g id="Group_134" transform="translate(-733.321 -60.086)">
        <g id="Path_79" class="cls-1">
            <path d="M169.86 33.493c97.705-66.727 205.182 130.629 258.476 159.32s86.38 206.05-226.721 194.531c-109.272-4.02-197.738-7.924-218.637-32.366-38.558-45.093 61.529-125.941 19.9-162.164C-61.08 137.17 72.155 100.22 169.86 33.493z" class="cls-30" transform="translate(813.524 91.037)"/>
            <path fill="#fdf9d8" d="M212.224 26.802c-13.562 0-26.128 4.08-38.416 12.471-27.736 18.942-58.786 35.771-86.18 50.62C40.362 115.51-4.28 139.707-6.747 162.096c-.883 8.026 3.766 16.345 14.213 25.435 24.775 21.556 8.688 54.135-6.869 85.643-14.751 29.875-28.684 58.094-12.3 77.254 19.476 22.778 118.15 26.409 213.574 29.92 9.752.358 19.115.532 28.2.532 126.21 0 207.572-35.615 223.225-97.713 9.157-36.325-7.23-72.86-28.28-84.191-16.96-9.13-37.92-32.945-62.191-60.521C319.043 88.71 264.554 26.802 212.224 26.802m0-7c85 0 170.442 148.425 216.112 173.01 51.618 27.789 84.229 195.068-198.264 195.068-9.167 0-18.616-.175-28.458-.537-109.272-4.02-197.738-7.924-218.637-32.366-38.558-45.093 61.529-125.941 19.896-162.165C-61.08 137.17 72.155 100.22 169.86 33.493c13.978-9.546 28.173-13.69 42.364-13.69z" transform="translate(813.524 91.037)"/>
        </g>
        <g id="Path_80" class="cls-1">
            <path d="M157.34 9.2c84.712-58.528 174.116 109.112 219.414 132.964S447.947 317.546 179.63 311.99 65.99 194.83 11.93 148.029 72.628 67.728 157.34 9.2z" class="cls-30" transform="translate(1071.184 545.573) rotate(-146)"/>
            <path fill="#f5f5f5" d="M194.868 3.875c-11.78 0-22.755 3.626-33.55 11.084-24.076 16.634-50.953 31.494-74.666 44.604-40.942 22.635-79.614 44.015-81.59 62.906-.669 6.39 3.076 13.02 11.447 20.267 20.82 18.024 15.528 43.206 10.41 67.56-4.6 21.889-8.945 42.564 3.951 58.794 17.843 22.452 66.55 34.196 148.904 35.9 4.782.1 9.446.148 14.041.148 163.181 0 195.954-61.311 202.47-87.672 7.471-30.226-5.754-60.137-22.793-69.109-14.622-7.699-32.335-27.9-52.846-51.292-36.405-41.519-81.712-93.19-125.778-93.19m0-7c72.533 0 143.248 124.944 181.885 145.288 44.483 23.422 70.232 169.975-182.938 169.975-4.642 0-9.355-.049-14.186-.149-268.317-5.555-113.64-117.16-167.701-163.96-54.062-46.801 60.7-80.302 145.412-138.83C169.795.594 182.365-3.125 194.868-3.125z" transform="translate(1071.184 545.573) rotate(-146)"/>
        </g>
        <g id="Path_81" class="cls-1">
            <path d="M111.427 8.484c59.261-41.348 124.448 80.944 156.773 98.723s52.392 127.68-137.512 120.542-81.754-86.063-120.543-120.542S52.166 49.831 111.427 8.484z" class="cls-30" transform="translate(1078.982 157.373) rotate(67)"/>
            <path fill="#f1f0e8" d="M137.122 7c-7.628 0-14.722 2.363-21.69 7.224-16.94 11.82-35.839 22.285-52.514 31.518C36.136 60.572 8.442 75.908 7.054 88.421c-.167 1.502-.674 6.074 7.741 13.554 15.671 13.93 11.961 33.428 8.688 50.63-2.94 15.446-5.715 30.034 3.288 41.338 12.65 15.881 46.726 24.651 104.179 26.81 5.878.221 11.521.328 16.997.328 74.792 0 123.121-21.152 132.594-58.032 5.95-23.169-5.515-44.099-15.716-49.709-10.721-5.897-23.583-20.826-38.476-38.113C200.162 44.83 167.572 7 137.122 7m0-7c51.555 0 103.377 91.972 131.077 107.207 31.308 17.219 51.087 120.874-120.252 120.874-5.56 0-11.291-.108-17.26-.332-189.904-7.139-81.753-86.063-120.542-120.542-38.789-34.48 42.021-57.376 101.282-98.724C119.905 2.568 128.514 0 137.122 0z" transform="translate(1078.982 157.373) rotate(67)"/>
        </g>
        <g id="Group_52" transform="translate(1115.444 284.969) rotate(-98)">
            <path id="Path_3" d="M.3 5.753a19.481 19.481 0 0 0 3.442 14.813c5.245 7.3 18.915 1.988 15.222-7.8A22.244 22.244 0 0 0 6.738 0z" class="cls-2" transform="translate(21.429 28.547)"/>
            <ellipse id="Ellipse_1" cx="20.783" cy="16.071" class="cls-3" rx="20.783" ry="16.071" transform="translate(0 9.414) rotate(-13.09)"/>
            <path id="Path_4" d="M.057 2.687A2.19 2.19 0 1 0 1.694.057a2.191 2.191 0 0 0-1.637 2.63z" class="cls-4" transform="translate(33.564 23.028)"/>
            <path id="Path_5" d="M13.659 9.886a4.57 4.57 0 0 0-.2-3.722A13.3 13.3 0 0 0 8.011.637C2.94-2.114-3.1 4.659 1.836 9.259A14.869 14.869 0 0 0 8.2 12.793a4.621 4.621 0 0 0 5.457-2.908z" class="cls-4" transform="translate(24.212 6.892)"/>
        </g>
        <g id="Group_34" transform="translate(853.817 178.337) rotate(-64)">
            <path id="Path_3-2" d="M.183 3.526a11.938 11.938 0 0 0 2.11 9.074c3.215 4.471 11.591 1.218 9.328-4.778A13.631 13.631 0 0 0 4.129 0z" class="cls-2" transform="translate(13.132 17.494)"/>
            <ellipse id="Ellipse_1-2" cx="12.736" cy="9.848" class="cls-3" rx="12.736" ry="9.848" transform="translate(0 5.769) rotate(-13.09)"/>
            <path id="Path_4-2" d="M.035 1.647a1.342 1.342 0 1 0 1-1.612 1.343 1.343 0 0 0-1 1.612z" class="cls-4" transform="translate(20.569 14.112)"/>
            <path id="Path_5-2" d="M8.371 6.058a2.8 2.8 0 0 0-.122-2.281A8.148 8.148 0 0 0 4.909.39C1.8-1.3-1.9 2.855 1.125 5.674a9.11 9.11 0 0 0 3.9 2.166 2.831 2.831 0 0 0 3.346-1.782z" class="cls-4" transform="translate(14.838 4.223)"/>
        </g>
        <g id="Group_56" transform="translate(1202.247 408.598) rotate(-64)">
            <path id="Path_3-3" d="M.145 2.8a9.484 9.484 0 0 0 1.677 7.212c2.554 3.552 9.209.968 7.411-3.8A10.829 10.829 0 0 0 3.28 0z" class="cls-2" transform="translate(10.433 13.898)"/>
            <ellipse id="Ellipse_1-3" cx="10.118" cy="7.824" class="cls-3" rx="10.118" ry="7.824" transform="translate(0 4.583) rotate(-13.09)"/>
            <path id="Path_4-3" d="M.028 1.308a1.066 1.066 0 1 0 .8-1.28 1.067 1.067 0 0 0-.8 1.28z" class="cls-4" transform="translate(16.341 11.211)"/>
            <path id="Path_5-3" d="M6.65 4.813A2.226 2.226 0 0 0 6.553 3 6.472 6.472 0 0 0 3.9.31C1.432-1.029-1.511 2.268.894 4.508a7.238 7.238 0 0 0 3.1 1.721A2.25 2.25 0 0 0 6.65 4.813z" class="cls-4" transform="translate(11.788 3.355)"/>
        </g>
        <g id="Group_46" transform="translate(977.278 159.957) rotate(-7)">
            <path id="Path_3-4" d="M.346 6.686a22.638 22.638 0 0 0 4 17.213c6.1 8.478 21.98 2.311 17.689-9.061A25.848 25.848 0 0 0 7.83 0z" class="cls-2" transform="translate(24.902 33.173)"/>
            <ellipse id="Ellipse_1-4" cx="24.151" cy="18.675" class="cls-3" rx="24.151" ry="18.675" transform="translate(0 10.939) rotate(-13.09)"/>
            <path id="Path_4-4" d="M.067 3.122A2.545 2.545 0 1 0 1.969.067 2.546 2.546 0 0 0 .067 3.122z" class="cls-4" transform="translate(39.004 26.76)"/>
            <path id="Path_5-4" d="M15.873 11.488a5.311 5.311 0 0 0-.232-4.325A15.45 15.45 0 0 0 9.309.74C3.417-2.457-3.608 5.414 2.134 10.759a17.279 17.279 0 0 0 7.4 4.107 5.369 5.369 0 0 0 6.341-3.379z" class="cls-4" transform="translate(28.136 8.008)"/>
        </g>
        <g id="Group_35" transform="translate(825.14 283.161) rotate(42)">
            <path id="Path_3-5" d="M.258 4.972a16.836 16.836 0 0 0 2.976 12.8c4.533 6.3 16.347 1.718 13.155-6.738A19.223 19.223 0 0 0 5.823 0z" class="cls-2" transform="translate(18.519 24.671)"/>
            <ellipse id="Ellipse_1-5" cx="17.961" cy="13.889" class="cls-3" rx="17.961" ry="13.889" transform="translate(0 8.136) rotate(-13.09)"/>
            <path id="Path_4-5" d="M.049 2.322A1.893 1.893 0 1 0 1.464.05 1.893 1.893 0 0 0 .049 2.322z" class="cls-4" transform="translate(29.007 19.902)"/>
            <path id="Path_5-5" d="M11.8 8.543a3.95 3.95 0 0 0-.172-3.216A11.49 11.49 0 0 0 6.923.551C2.541-1.827-2.683 4.026 1.587 8a12.851 12.851 0 0 0 5.5 3.055A3.993 3.993 0 0 0 11.8 8.543z" class="cls-4" transform="translate(20.925 5.956)"/>
        </g>
        <g id="Group_55" transform="matrix(0.105, -0.995, 0.995, 0.105, 1188.855, 299.842)">
            <path id="Path_6" d="M32.024 8.834C31.687.1 24.691-.807 16.333.461 7.3 1.834 0 10.516 0 19.252 0 23.274 4.161 26.6 12.615 26.6s19.791-7.734 19.409-17.766z" class="cls-5" transform="translate(2.753 5.771)"/>
            <path id="Path_7" d="M12.914 3.6H4.528S.55 6.086 1.416 12.4c0 0-3.458-7.6.434-10.45S10.232.138 11.358.4s3.457 2.59 3.457 2.59z" class="cls-6" transform="translate(0 9.602)"/>
            <path id="Path_8" d="M3.285 9.368s4.063-9.251 7.435-7l4.644 2.502S13.162.137 10.44.007 2.53 1.563.778 6.427s0 4.185 0 4.185l1.361 1.649z" class="cls-6" transform="translate(14.037 0)"/>
            <path id="Path_9" d="M4.079 1.725C4.444.778 3.713.344 2.73.075A2.339 2.339 0 0 0 .053 1.286c-.187.427.117.983 1.052 1.39s2.551.134 2.974-.951z" class="cls-7" transform="translate(23.222 7.038)"/>
            <path id="Path_10" d="M2.277.422s.646 7.427 0 8.983a25.791 25.791 0 0 1-2.272 3.823s-.162 2.206 1.28 1.491A9.691 9.691 0 0 0 5.714 8.95 31.961 31.961 0 0 0 6.1 2.262s0-3.433-3.5-1.84" class="cls-7" transform="translate(26.337 10.214)"/>
            <path id="Path_16" d="M7.26 10.027l.78 5.879 4.234 6.655.691-9.6-4.754-5.27S5.79.43 3.718 0L0 4.063 5.184 6.74z" class="cls-6" transform="translate(5.999 0.454)"/>
        </g>
        <g id="Group_38" transform="translate(870.981 308.608) rotate(-16)">
            <path id="Path_6-2" d="M33.322 9.192C32.971.107 25.691-.84 16.995.479 7.6 1.908 0 10.942 0 20.032c0 4.185 4.329 7.643 13.126 7.643S33.719 19.63 33.322 9.192z" class="cls-5" transform="translate(2.864 6.005)"/>
            <path id="Path_7-2" d="M13.437 3.741H4.711S.572 6.332 1.473 12.906c0 0-3.6-7.906.452-10.873s8.722-1.89 9.893-1.62 3.6 2.7 3.6 2.7z" class="cls-6" transform="translate(0 9.991)"/>
            <path id="Path_8-2" d="M3.418 9.748S7.646.122 11.154 2.459l4.832 2.608S13.7.143 10.863.007 2.632 1.627.81 6.687s0 4.355 0 4.355l1.416 1.716z" class="cls-6" transform="translate(14.606 0)"/>
            <path id="Path_9-2" d="M4.244 1.795C4.624.81 3.864.357 2.84.078a2.433 2.433 0 0 0-2.785 1.26c-.195.444.122 1.023 1.094 1.446s2.651.139 3.095-.989z" class="cls-7" transform="translate(24.163 7.323)"/>
            <path id="Path_10-2" d="M2.369.439s.673 7.728 0 9.347a26.834 26.834 0 0 1-2.363 3.978s-.169 2.3 1.332 1.552a10.084 10.084 0 0 0 4.608-6 33.256 33.256 0 0 0 .4-6.959s0-3.572-3.64-1.915" class="cls-7" transform="translate(27.404 10.628)"/>
            <path id="Path_16-2" d="M7.554 10.433l.812 6.118 4.405 6.925.719-9.986L8.544 8S6.024.448 3.868 0L0 4.228l5.394 2.786z" class="cls-6" transform="translate(6.242 0.472)"/>
        </g>
        <g id="Group_50" transform="matrix(0.438, -0.899, 0.899, 0.438, 1067.726, 191.338)">
            <path id="Path_11" d="M35.788 7.616s0 7.811-5.349 9.667-8.772-.716-11.517 1.024C15.835 20.261 3.493 34.761 3.493 34.761L1.541 36.1 0 34.761A40.912 40.912 0 0 1 8.694 9.15c5.691-7.108 13.7-12.819 22.57-6.27z" class="cls-8" transform="translate(0 2.399)"/>
            <path id="Path_12" d="M0 4.71S3.5.185 5.762.185s9.771-.619 11 .406v5.42s-12.787-2.4-14.843.271S0 4.71 0 4.71z" class="cls-6" transform="translate(34.516 3.82)"/>
            <path id="Path_13" d="M2.017 0S3.66 0 4.072 2.4s-.272 7.609-1.507 9.323S2.2 6.786.5 5.343 2.017 0 2.017 0z" class="cls-6" transform="translate(34.491 9.215)"/>
            <path id="Path_14" d="M9.159 5.42S9.119 1.3 1.509 0H0s5.9 3.5 7.057 5.42a4.237 4.237 0 0 0 3.635 1.78z" class="cls-6" transform="translate(26.134 0)"/>
            <path id="Path_15" d="M6.974 3.7a2.246 2.246 0 0 0-2.945 0A23.167 23.167 0 0 0 .67 7.057s-1.508-.825 0-3.906S7.25 0 7.25 0z" class="cls-6" transform="translate(27.725 7.205)"/>
            <path id="Path_17" d="M14.217 2.289S5.884 12.259 4.891 14.9a52.264 52.264 0 0 0-1.811 6.974S.947 25.084.316 23.067s-.432-7.077 1.772-11.22a81.76 81.76 0 0 1 6.574-9.668s3.557-4.821 5.245-.123" class="cls-9" transform="translate(2.508 10.652)"/>
            <path id="Path_18" d="M6.469 2.736C7.056 1.234 5.889.545 4.33.12A3.716 3.716 0 0 0 .083 2.04c-.3.677.193 1.56 1.675 2.2s4.042.217 4.711-1.504z" class="cls-7" transform="translate(19.271 6.151)"/>
        </g>
        <g id="Group_39" transform="translate(786.411 231.019) rotate(-158)">
            <path id="Path_11-2" d="M20.751 4.416s0 4.529-3.1 5.605-5.086-.415-6.678.594c-1.79 1.132-8.946 9.54-8.946 9.54l-1.132.777L0 20.155a23.722 23.722 0 0 1 5.041-14.85c3.3-4.122 7.941-7.432 13.086-3.636z" class="cls-8" transform="translate(0 1.391)"/>
            <path id="Path_12-2" d="M0 2.731S2.03.107 3.341.107 9.006-.251 9.72.343v3.143S2.306 2.1 1.114 3.643 0 2.731 0 2.731z" class="cls-6" transform="translate(20.013 2.215)"/>
            <path id="Path_13-2" d="M1.17 0s.953 0 1.192 1.39S2.2 5.8 1.487 6.8 1.274 3.935.288 3.1 1.17 0 1.17 0z" class="cls-6" transform="translate(19.999 5.343)"/>
            <path id="Path_14-2" d="M5.31 3.143S5.288.755.875 0H0s3.419 2.029 4.092 3.143A2.457 2.457 0 0 0 6.2 4.174z" class="cls-6" transform="translate(15.153 0)"/>
            <path id="Path_15-2" d="M4.043 2.145a1.3 1.3 0 0 0-1.708 0A13.439 13.439 0 0 0 .389 4.092s-.874-.478 0-2.265S4.2 0 4.2 0z" class="cls-6" transform="translate(16.076 4.178)"/>
            <path id="Path_17-2" d="M8.244 1.327S3.412 7.108 2.836 8.64a30.3 30.3 0 0 0-1.05 4.043s-1.237 1.861-1.6.691a10.074 10.074 0 0 1 1.025-6.505 47.4 47.4 0 0 1 3.811-5.605s2.063-2.8 3.041-.071" class="cls-9" transform="translate(1.454 6.176)"/>
            <path id="Path_18-2" d="M3.751 1.587C4.091.716 3.415.316 2.511.069A2.155 2.155 0 0 0 .048 1.183c-.172.392.112.9.971 1.278a2.159 2.159 0 0 0 2.732-.874z" class="cls-7" transform="translate(11.174 3.567)"/>
        </g>
        <g id="Group_51" transform="matrix(0.998, 0.07, -0.07, 0.998, 1090.235, 339.454)">
            <path id="Path_11-3" d="M28.031 5.965s0 6.118-4.19 7.572-6.87-.56-9.021.8c-2.42 1.532-12.084 12.89-12.084 12.89l-1.53 1.05L0 27.227A32.044 32.044 0 0 1 6.809 7.166C11.267 1.6 17.536-2.874 24.487 2.255z" class="cls-8" transform="translate(0 1.879)"/>
            <path id="Path_12-3" d="M0 3.689S2.742.145 4.513.145s7.653-.485 8.617.318v4.245S3.116 2.831 1.505 4.921 0 3.689 0 3.689z" class="cls-6" transform="translate(27.034 2.992)"/>
            <path id="Path_13-3" d="M1.58 0s1.287 0 1.61 1.878-.217 5.962-1.181 7.3-.288-3.867-1.62-5S1.58 0 1.58 0z" class="cls-6" transform="translate(27.015 7.217)"/>
            <path id="Path_14-3" d="M7.173 4.245S7.143 1.02 1.182 0H0s4.619 2.741 5.528 4.245a3.318 3.318 0 0 0 2.847 1.393z" class="cls-6" transform="translate(20.469 0)"/>
            <path id="Path_15-3" d="M5.462 2.9a1.759 1.759 0 0 0-2.307 0 18.144 18.144 0 0 0-2.63 2.63s-1.181-.646 0-3.059S5.679 0 5.679 0z" class="cls-6" transform="translate(21.716 5.643)"/>
            <path id="Path_17-3" d="M11.136 1.793S4.608 9.6 3.831 11.671a40.938 40.938 0 0 0-1.419 5.461s-1.67 2.515-2.165.935-.338-5.543 1.388-8.788a64.036 64.036 0 0 1 5.149-7.572s2.786-3.776 4.108-.1" class="cls-9" transform="translate(1.964 8.343)"/>
            <path id="Path_18-3" d="M5.067 2.143C5.527.967 4.613.427 3.392.094A2.911 2.911 0 0 0 .065 1.6c-.233.53.151 1.222 1.312 1.726s3.165.165 3.69-1.183z" class="cls-7" transform="translate(15.094 4.818)"/>
        </g>
        <g id="Group_44" transform="matrix(0.951, 0.309, -0.309, 0.951, 839.376, 384.376)">
            <path id="Path_11-4" d="M28.031 5.965s0 6.118-4.19 7.572-6.87-.56-9.021.8c-2.42 1.532-12.084 12.89-12.084 12.89l-1.53 1.05L0 27.227A32.044 32.044 0 0 1 6.809 7.166C11.267 1.6 17.536-2.874 24.487 2.255z" class="cls-8" transform="translate(0 1.879)"/>
            <path id="Path_12-4" d="M0 3.689S2.742.145 4.513.145s7.653-.484 8.617.318v4.245S3.116 2.831 1.505 4.921 0 3.689 0 3.689z" class="cls-6" transform="translate(27.034 2.992)"/>
            <path id="Path_13-4" d="M1.58 0s1.287 0 1.61 1.878-.217 5.962-1.181 7.3-.288-3.867-1.62-5S1.58 0 1.58 0z" class="cls-6" transform="translate(27.015 7.217)"/>
            <path id="Path_14-4" d="M7.173 4.245S7.143 1.02 1.182 0H0s4.619 2.741 5.527 4.245a3.318 3.318 0 0 0 2.847 1.393z" class="cls-6" transform="translate(20.469 0)"/>
            <path id="Path_15-4" d="M5.462 2.9a1.759 1.759 0 0 0-2.307 0 18.147 18.147 0 0 0-2.63 2.63s-1.181-.646 0-3.059S5.679 0 5.679 0z" class="cls-6" transform="translate(21.716 5.643)"/>
            <path id="Path_17-4" d="M11.136 1.793S4.609 9.6 3.831 11.671a40.932 40.932 0 0 0-1.419 5.461s-1.67 2.515-2.165.935-.338-5.543 1.388-8.788a64.025 64.025 0 0 1 5.149-7.572s2.786-3.776 4.108-.1" class="cls-9" transform="translate(1.965 8.343)"/>
            <path id="Path_18-4" d="M5.067 2.143C5.527.967 4.613.427 3.391.094A2.911 2.911 0 0 0 .065 1.6c-.233.53.151 1.222 1.312 1.726s3.165.165 3.69-1.183z" class="cls-7" transform="translate(15.094 4.818)"/>
        </g>
        <g id="Group_42" transform="translate(911.702 377.104)">
            <path id="Path_19" d="M192.27 67.728s10.933 70.4 6.092 79.541-122.045 53.245-177.882 3.245c0 0-22.005-11.968-20.4-30.167s36.59-43.935 22.554-58C18.87 58.584 4.376 47.83 4.376 47.83l18.762-30.243S32.536 6.719 63.673.269 95.245 105.4 119.256 95.1c8.824-3.8 6.744-37.985 11.315-40.233 5.657-2.771 20.383-14.686 20.383-14.686l5.709 22z" class="cls-10" transform="translate(0 41.478)"/>
            <path id="Path_20" d="M27.9 55.936S14.558 40.712 15.529 30.929 27.9 16.255 27.9 16.255s-3.079 31.061 9.872 34.559 10.242-5.747 10.242-5.747-10.863-20.114-5.972-38.045S-6.872 8.107.739 34.736s23.385 30.97 23.385 30.97z" class="cls-11" transform="translate(8.604 0)"/>
            <path id="Path_21" d="M24.009 93.861s-9.131 66.667-4.291 75.8 120.246 56.986 176.082 7c0 0 22.006-11.979 20.4-30.179s-36.591-43.934-22.542-58c1.1-1.111 3.116-2.81 5.426-4.662a34.594 34.594 0 0 0 12.824-26.974v-8.017a34.2 34.2 0 0 0-13.22-27.293c-8.735-6.654-21.481-14.2-37.242-17.459-31.137-6.462-51.544-4.3-77.306 0S3.078 43.86.919 49.773a30.691 30.691 0 0 0-.906 7.868 34.515 34.515 0 0 0 24 33.526z" class="cls-10" transform="translate(4.9 18.73)"/>
            <path id="Path_22" fill="#74197e" d="M143.384 7.757l-45.652 16.7L0 21.561l2.081-16.67L145.557 0z" transform="translate(23.359 106.05)"/>
            <path id="Path_23" fill="#fe0" d="M0 29.029s113.387-58.173 152.1-9.819S9.213 44.231 9.213 44.231z" transform="translate(32.28 48.527)"/>
            <path id="Path_24" fill="#9d0b7c" stroke="#9d0b7c" stroke-miterlimit="10" stroke-width="0.25px" d="M25.572 0C22.24 5.517 17.526 13.613 12.24 23.742 6.378 35.006.48 47.715.109 51.035c-1.968 17.778 23.069 33.181 44.846 43.832 42.426 20.741 131.412 10.51 134.9-5.492 1.533-7.088-38.238-14.05-45.94-16.118-7.113-1.9-10.179 4.993-20.421 7.075C98.6 83.372 82.9 73.32 83.083 67.2c.153-5.76 14.3-8.557 13.742-12.644-.294-2.184-4.61-3.3-7.5-3.525-11.087-.907-16.093 9.846-24.166 7.061-3.115-1.059-6.039-3.919-5.836-6.054.333-3.575 9.132-2.9 10.831-8.594a9.882 9.882 0 0 0-2.5-9.093c-3.768-3.525-10.613-.766-17.5 2.018-5.364 2.171-7.79 4.061-9.578 2.529-2.057-1.75-1.852-6.731-1.252-9.094 3.1-12.325 44.3-27.024 52.107-26.859" transform="translate(1.586 112.538)"/>
            <g filter="url(#Path_25)" transform="matrix(1, 0, 0, 1, -178.38, -317.02)">
                <path id="Path_25-2" fill="#952b86" stroke="#952b86" stroke-miterlimit="10" stroke-width="0.25px" d="M173.554 60.183c-15.976 2.183-102.018 13.179-149.247 3.409C10.436 60.732.462 49.236.014 35.762a28.639 28.639 0 0 1 8.609-21.277l4.993-3.793C21.892 8.662 24.307 27.18 34.1 30c25.62 7.356 97.792 2.465 128.111-1.864a41.58 41.58 0 0 0 21.489-9.921C194 9.159 213.02-7.558 219.6 3.847a46.357 46.357 0 0 1 5 13.563c3.129 14.648-5.812 29.208-20.766 33.844l-25.211 7.79a31.11 31.11 0 0 1-5.069 1.139z" transform="translate(178.81 366.3)"/>
            </g>
            <path id="Path_26" d="M5.441 38.59L0 19.344S20.256-8.92 38.927 2.882l.665 24.342-31.43 16.807z" class="cls-11" transform="translate(178.567 41.165)"/>
            <path id="Path_27" fill="#622f88" stroke="#622f88" stroke-miterlimit="10" stroke-width="0.25px" d="M1.459 10.511l9.987-9.171S19-3.755 15.33 5.925s-9.785 10.5-9.785 10.5-8.978 4.275-4.086-5.914z" transform="translate(190.199 54.52)"/>
        </g>
        <g id="Group_45" transform="matrix(0.998, 0.07, -0.07, 0.998, 955.616, 247.607)">
            <path id="Path_28" fill="#7a2c2a" d="M34.487 49.406c-1.246.2-2.529.394-3.867.592-1.432.209-2.931.43-4.492.687-7.758 1.276-28.5-6.348-25.9-23.831C1.338 19.355 6 12.028 13.01 6.754 21.6.286 31.661-1.739 38.667 1.561 52.933 8.3 57.7 12.2 55.134 29.439c-.866 5.83-2.713 10.2-5.655 13.377-3.923 4.236-8.893 5.584-14.992 6.59zm-8.1-42.28a25.872 25.872 0 0 0-11.1 4.935c-2.893 2.175-7.9 6.865-8.933 13.785C4.387 39.074 22.485 44.666 27.137 43.9c1.6-.263 3.126-.488 4.588-.7 6.462-.963 11.583-1.708 14.176-4.51 1.509-1.624 2.523-4.322 3.105-8.24 2.013-13.55-.486-15.987-14.13-22.436a14.452 14.452 0 0 0-8.487-.888z" transform="matrix(0.809, -0.588, 0.588, 0.809, 0, 32.796)"/>
            <path id="Path_29" fill="#e86762" d="M47.281 25.491c-2.63 15.4-11.306 15.038-25 17.668C16.485 44.273-2.38 38.573.25 23.171s22.061-26.979 32.873-22c13.177 6.062 16.788 8.918 14.158 24.32z" transform="matrix(0.809, -0.588, 0.588, 0.809, 3.079, 30.469)"/>
            <path id="Path_30" fill="#1a1818" d="M31.375 43.609c-1.189.219-2.427.429-3.711.644-1.412.234-2.883.481-4.422.765C17.6 46.059-2.428 40.29.244 24.066 1.317 17.553 5.461 11.1 11.623 6.365 19.25.49 28.455-1.568 34.509 1.245 47.552 7.29 51.924 10.21 49.248 26.459c-.845 5.13-2.365 8.747-4.786 11.384-3.21 3.495-7.625 4.757-13.087 5.766zm-7.09-41.572a28.95 28.95 0 0 0-12.133 5.629C6.511 12.006 2.716 17.883 1.743 23.79c-2.5 15.175 16.442 20.533 21.775 19.549 1.545-.285 3.028-.532 4.446-.769 6.836-1.134 12.265-2.048 15.636-5.73 2.033-2.212 3.39-5.519 4.145-10.105 2.4-14.591-.545-17.553-14.2-23.883a15.456 15.456 0 0 0-9.26-.815z" transform="matrix(0.809, -0.588, 0.588, 0.809, 1.76, 30.291)"/>
            <path id="Path_31" fill="#f49fa1" stroke="#f49fa1" d="M13.225 15.5C7.9 15.5 2.5 13.875 1 10.751-.633 7.342.034 5.026.879 3.683 2.362 1.34 5.65 0 9.908 0H10c8.126.034 12.2.049 14.8 6.944 1.145 3.044-.228 5.656-3.773 7.169a20.383 20.383 0 0 1-7.802 1.387zM9.9 1.88c-3.6 0-6.305 1.02-7.429 2.807-1.078 1.707-.476 3.795.221 5.249 1.673 3.486 11.869 4.9 17.594 2.452 2.6-1.112 3.523-2.72 2.745-4.783C20.984 2.167 18.452 1.913 9.98 1.88z" transform="matrix(0.809, -0.588, 0.588, 0.809, 28.068, 39.689)"/>
            <path id="Path_32" fill="#f49ea1" d="M5.119 6.668a5.318 5.318 0 0 1-4.008-1.457C-.174 3.687-.115 2.538.164 1.849A3.147 3.147 0 0 1 2.991.131c2.738-.283 4.162-.316 5.968 2.113a2.3 2.3 0 0 1-.317 3.428 5.905 5.905 0 0 1-3.523.996zm-.176-4.8c-.47 0-1.028.059-1.761.136-.808.08-1.191.345-1.271.547-.1.228.03.726.639 1.449.867 1.04 3.884 1.015 4.934.2.183-.151.367-.29-.037-.837-.868-1.174-1.411-1.496-2.504-1.496z" transform="matrix(0.809, -0.588, 0.588, 0.809, 37.841, 38.673)"/>
        </g>
        <circle id="Ellipse_92" cx="2.002" cy="2.002" r="2.002" class="cls-22" transform="translate(899.565 184.284)"/>
        <circle id="Ellipse_102" cx="2.002" cy="2.002" r="2.002" class="cls-22" transform="translate(957.924 223.116)"/>
        <ellipse id="Ellipse_96" cx="2.402" cy="2.002" class="cls-22" rx="2.402" ry="2.002" transform="translate(897.062 369.198)"/>
        <ellipse id="Ellipse_97" cx="2.402" cy="2.002" class="cls-22" rx="2.402" ry="2.002" transform="translate(822.686 376.595)"/>
        <ellipse id="Ellipse_108" cx="2.402" cy="2.002" class="cls-23" rx="2.402" ry="2.002" transform="translate(1184.547 383.693)"/>
        <ellipse id="Ellipse_98" cx="2.402" cy="2.002" class="cls-23" rx="2.402" ry="2.002" transform="translate(861.926 387.69)"/>
        <ellipse id="Ellipse_116" cx="2.402" cy="2.002" class="cls-23" rx="2.402" ry="2.002" transform="translate(1123.692 275.816)"/>
        <ellipse id="Ellipse_93" cx="2.402" cy="2.002" class="cls-23" rx="2.402" ry="2.002" transform="translate(917.984 262.873)"/>
        <ellipse id="Ellipse_121" cx="2.402" cy="2.002" class="cls-23" rx="2.402" ry="2.002" transform="translate(1180.257 454.627)"/>
        <ellipse id="Ellipse_166" cx="2.211" cy="1.842" class="cls-23" rx="2.211" ry="1.842" transform="translate(800.642 576.946)"/>
        <ellipse id="Ellipse_167" cx="2.211" cy="1.842" class="cls-23" rx="2.211" ry="1.842" transform="translate(1158.766 607.58)"/>
        <ellipse id="Ellipse_120" cx="2.402" cy="2.002" class="cls-23" rx="2.402" ry="2.002" transform="translate(1196.567 227.738)"/>
        <ellipse id="Ellipse_163" cx="2.211" cy="1.842" class="cls-23" rx="2.211" ry="1.842" transform="translate(1339.429 515.845)"/>
        <ellipse id="Ellipse_100" cx="2.402" cy="2.002" class="cls-23" rx="2.402" ry="2.002" transform="translate(951.517 313.723)"/>
        <ellipse id="Ellipse_101" cx="4.404" cy="4.004" class="cls-24" rx="4.404" ry="4.004" transform="matrix(0.998, 0.07, -0.07, 0.998, 941.804, 164.77)"/>
        <ellipse id="Ellipse_89" cx="4.404" cy="4.004" class="cls-24" rx="4.404" ry="4.004" transform="translate(892.358 304.829)"/>
        <ellipse id="Ellipse_115" cx="4.404" cy="4.004" class="cls-24" rx="4.404" ry="4.004" transform="matrix(0.998, 0.07, -0.07, 0.998, 1112.439, 369.696)"/>
        <circle id="Ellipse_99" cx="4.404" cy="4.404" r="4.404" class="cls-24" transform="matrix(0.998, 0.07, -0.07, 0.998, 897.968, 239.224)"/>
        <circle id="Ellipse_111" cx="4.404" cy="4.404" r="4.404" class="cls-24" transform="matrix(0.998, 0.07, -0.07, 0.998, 1045.058, 278.451)"/>
        <circle id="Ellipse_90" cx="4.404" cy="4.404" r="4.404" class="cls-24" transform="translate(833.098 206.784)"/>
        <circle id="Ellipse_117" cx="4.404" cy="4.404" r="4.404" class="cls-24" transform="matrix(0.998, 0.07, -0.07, 0.998, 1135.204, 192.512)"/>
        <ellipse id="Ellipse_162" cx="3.684" cy="4.053" class="cls-24" rx="3.684" ry="4.053" transform="translate(1149.911 669.345)"/>
        <ellipse id="Ellipse_105" cx="4.004" cy="4.404" class="cls-24" rx="4.004" ry="4.404" transform="matrix(0.998, 0.07, -0.07, 0.998, 935.747, 444.531)"/>
        <ellipse id="Ellipse_113" cx="2.803" cy="3.203" class="cls-24" rx="2.803" ry="3.203" transform="matrix(0.998, 0.07, -0.07, 0.998, 1029.149, 453.569)"/>
        <ellipse id="Ellipse_112" cx="2.803" cy="3.203" class="cls-9" rx="2.803" ry="3.203" transform="matrix(0.998, 0.07, -0.07, 0.998, 999.935, 444.786)"/>
        <circle id="Ellipse_106" cx="2.402" cy="2.402" r="2.402" class="cls-9" transform="matrix(0.998, 0.07, -0.07, 0.998, 1064.706, 455.209)"/>
        <circle id="Ellipse_109" cx="3.604" cy="3.604" r="3.604" class="cls-24" transform="matrix(0.998, 0.07, -0.07, 0.998, 1048.811, 455.149)"/>
        <ellipse id="Ellipse_119" cx="4.004" cy="4.404" class="cls-24" rx="4.004" ry="4.404" transform="matrix(0.998, 0.07, -0.07, 0.998, 1175.388, 337.742)"/>
        <ellipse id="Ellipse_161" cx="3.684" cy="4.053" class="cls-24" rx="3.684" ry="4.053" transform="matrix(0.998, 0.07, -0.07, 0.998, 863.777, 613.56)"/>
        <ellipse id="Ellipse_110" cx="2.002" cy="2.402" class="cls-24" rx="2.002" ry="2.402" transform="matrix(0.998, 0.07, -0.07, 0.998, 1202.775, 363.277)"/>
        <ellipse id="Ellipse_114" cx="2.402" cy="2.002" class="cls-22" rx="2.402" ry="2.002" transform="translate(1096.465 275.816)"/>
        <circle id="Ellipse_94" cx="2.002" cy="2.002" r="2.002" class="cls-22" transform="translate(910.777 211.097)"/>
        <ellipse id="Ellipse_95" cx="2.002" cy="2.402" class="cls-22" rx="2.002" ry="2.402" transform="translate(869.033 348.011)"/>
        <ellipse id="Ellipse_91" cx="2.402" cy="2.002" class="cls-24" rx="2.402" ry="2.002" transform="translate(795.287 273.043)"/>
        <ellipse id="Ellipse_107" cx="4.404" cy="4.004" class="cls-24" rx="4.404" ry="4.004" transform="matrix(0.998, 0.07, -0.07, 0.998, 1003.296, 329.329)"/>
        <g id="Group_37" transform="matrix(0.998, 0.07, -0.07, 0.998, 878.855, 217.484)">
            <g id="Ellipse_29" class="cls-25" transform="translate(0 0)">
                <circle cx="18.018" cy="18.018" r="18.018" class="cls-30"/>
                <circle cx="18.018" cy="18.018" r="17.018" class="cls-34"/>
            </g>
            <g id="Ellipse_30" class="cls-26" transform="translate(4.805 4.805)">
                <circle cx="13.614" cy="13.614" r="13.614" class="cls-30"/>
                <circle cx="13.614" cy="13.614" r="10.614" class="cls-34"/>
            </g>
            <g id="Ellipse_31" class="cls-27" transform="translate(3.203 3.203)">
                <circle cx="14.815" cy="14.815" r="14.815" class="cls-30"/>
                <circle cx="14.815" cy="14.815" r="12.815" class="cls-34"/>
            </g>
            <g id="Ellipse_32" class="cls-28" transform="translate(7.207 7.207)">
                <circle cx="10.811" cy="10.811" r="10.811" class="cls-30"/>
                <circle cx="10.811" cy="10.811" r="9.311" class="cls-34"/>
            </g>
            <g id="Ellipse_33" class="cls-29" transform="translate(12.813 12.813)">
                <circle cx="5.205" cy="5.205" r="5.205" class="cls-30"/>
                <circle cx="5.205" cy="5.205" r="3.705" class="cls-34"/>
            </g>
        </g>
        <g id="Group_53" transform="matrix(0.998, 0.07, -0.07, 0.998, 1127.074, 131.508)">
            <g id="Ellipse_29-2" class="cls-25" transform="translate(0 0)">
                <circle cx="18.018" cy="18.018" r="18.018" class="cls-30"/>
                <circle cx="18.018" cy="18.018" r="17.018" class="cls-34"/>
            </g>
            <g id="Ellipse_30-2" class="cls-26" transform="translate(4.805 4.805)">
                <circle cx="13.614" cy="13.614" r="13.614" class="cls-30"/>
                <circle cx="13.614" cy="13.614" r="10.614" class="cls-34"/>
            </g>
            <g id="Ellipse_31-2" class="cls-27" transform="translate(3.203 3.203)">
                <circle cx="14.815" cy="14.815" r="14.815" class="cls-30"/>
                <circle cx="14.815" cy="14.815" r="12.815" class="cls-34"/>
            </g>
            <g id="Ellipse_32-2" class="cls-28" transform="translate(7.207 7.207)">
                <circle cx="10.811" cy="10.811" r="10.811" class="cls-30"/>
                <circle cx="10.811" cy="10.811" r="9.311" class="cls-34"/>
            </g>
            <g id="Ellipse_33-2" class="cls-29" transform="translate(12.813 12.813)">
                <circle cx="5.205" cy="5.205" r="5.205" class="cls-30"/>
                <circle cx="5.205" cy="5.205" r="3.705" class="cls-34"/>
            </g>
        </g>
        <g id="Group_54" transform="matrix(0.998, 0.07, -0.07, 0.998, 1065.839, 313.939)">
            <g id="Ellipse_29-3" class="cls-25" transform="translate(0 0)">
                <circle cx="12.413" cy="12.413" r="12.413" class="cls-30"/>
                <circle cx="12.413" cy="12.413" r="11.413" class="cls-34"/>
            </g>
            <g id="Ellipse_30-3" class="cls-26" transform="translate(3.203 3.203)">
                <circle cx="9.61" cy="9.61" r="9.61" class="cls-30"/>
                <circle cx="9.61" cy="9.61" r="6.61" class="cls-34"/>
            </g>
            <g id="Ellipse_31-3" class="cls-27" transform="translate(2.402 2.402)">
                <circle cx="10.01" cy="10.01" r="10.01" class="cls-30"/>
                <circle cx="10.01" cy="10.01" r="8.01" class="cls-34"/>
            </g>
            <g id="Ellipse_32-3" class="cls-28" transform="translate(4.805 4.805)">
                <circle cx="7.608" cy="7.608" r="7.608" class="cls-30"/>
                <circle cx="7.608" cy="7.608" r="6.108" class="cls-34"/>
            </g>
            <g id="Ellipse_33-3" class="cls-29" transform="translate(8.809 8.809)">
                <circle cx="3.604" cy="3.604" r="3.604" class="cls-30"/>
                <circle cx="3.604" cy="3.604" r="2.104" class="cls-34"/>
            </g>
        </g>
        <g id="Group_47" transform="translate(1064.107 367.854) rotate(153)">
            <path id="Path_3-6" d="M.249 4.815a16.3 16.3 0 0 0 2.882 12.4c4.39 6.1 15.829 1.664 12.738-6.525A18.614 18.614 0 0 0 5.638 0z" class="cls-2" transform="translate(17.932 23.888)"/>
            <ellipse id="Ellipse_1-6" cx="17.392" cy="13.448" class="cls-3" rx="17.392" ry="13.448" transform="translate(0 7.878) rotate(-13.09)"/>
            <path id="Path_4-6" d="M.048 2.249a1.833 1.833 0 1 0 1.37-2.2 1.833 1.833 0 0 0-1.37 2.2z" class="cls-4" transform="translate(28.087 19.27)"/>
            <path id="Path_5-6" d="M11.43 8.272a3.825 3.825 0 0 0-.167-3.114A11.125 11.125 0 0 0 6.7.533C2.461-1.769-2.6 3.9 1.537 7.748a12.441 12.441 0 0 0 5.327 2.958 3.867 3.867 0 0 0 4.566-2.434z" class="cls-4" transform="translate(20.261 5.767)"/>
        </g>
        <g id="Group_77" transform="translate(1075.134 407.91) rotate(113)">
            <path id="Path_6-3" d="M38.948 10.745C38.538.125 30.029-.981 19.864.56 8.88 2.23 0 12.79 0 23.414c0 4.892 5.06 8.934 15.343 8.934s24.07-9.403 23.605-21.603z" class="cls-5" transform="translate(3.348 7.019)"/>
            <path id="Path_7-3" d="M15.706 4.373H5.507S.669 7.4 1.722 15.085c0 0-4.206-9.24.528-12.709S12.445.167 13.814.483s4.205 3.153 4.205 3.153z" class="cls-6" transform="translate(0 11.678)"/>
            <path id="Path_8-3" d="M4 11.394S8.937.142 13.038 2.875l5.648 3.049S16.008.167 12.7.008 3.077 1.9.947 7.816s0 5.09 0 5.09L2.6 14.912z" class="cls-6" transform="translate(17.073 0)"/>
            <path id="Path_9-3" d="M4.96 2.1C5.4.946 4.516.418 3.32.092A2.844 2.844 0 0 0 .064 1.564c-.228.519.143 1.2 1.279 1.69S4.447 3.417 4.96 2.1z" class="cls-7" transform="translate(28.243 8.559)"/>
            <path id="Path_10-3" d="M2.769.513s.786 9.033 0 10.925a31.376 31.376 0 0 1-2.762 4.65s-.2 2.683 1.557 1.814a11.787 11.787 0 0 0 5.386-7.017 38.869 38.869 0 0 0 .47-8.134s0-4.175-4.255-2.238" class="cls-7" transform="translate(32.031 12.423)"/>
            <path id="Path_16-3" d="M8.83 12.2l.949 7.151 5.149 8.094.841-11.672-5.782-6.419S7.041.523 4.521 0L0 4.941 6.305 8.2z" class="cls-6" transform="translate(7.296 0.552)"/>
        </g>
        <g id="Group_78" transform="translate(960.574 453.88) rotate(-64)">
            <path id="Path_3-7" d="M.145 2.8a9.484 9.484 0 0 0 1.677 7.212c2.554 3.552 9.209.968 7.411-3.8A10.829 10.829 0 0 0 3.28 0z" class="cls-2" transform="translate(10.433 13.898)"/>
            <ellipse id="Ellipse_1-7" cx="10.118" cy="7.824" class="cls-3" rx="10.118" ry="7.824" transform="translate(0 4.583) rotate(-13.09)"/>
            <path id="Path_4-7" d="M.028 1.308a1.066 1.066 0 1 0 .8-1.28 1.067 1.067 0 0 0-.8 1.28z" class="cls-4" transform="translate(16.341 11.211)"/>
            <path id="Path_5-7" d="M6.65 4.813A2.226 2.226 0 0 0 6.553 3 6.472 6.472 0 0 0 3.9.31C1.432-1.029-1.511 2.268.894 4.508a7.238 7.238 0 0 0 3.1 1.721A2.25 2.25 0 0 0 6.65 4.813z" class="cls-4" transform="translate(11.788 3.355)"/>
        </g>
        <g id="Group_112" transform="matrix(0.951, 0.309, -0.309, 0.951, 897.49, 618.953)">
            <path id="Path_11-5" d="M25.793 5.489s0 5.629-3.855 6.967-6.322-.516-8.3.738C11.412 14.6 2.518 25.053 2.518 25.053l-1.407.966L0 25.053A29.486 29.486 0 0 1 6.266 6.594c4.1-5.123 9.87-9.238 16.266-4.519z" class="cls-8" transform="translate(0 1.729)"/>
            <path id="Path_12-5" d="M0 3.394S2.523.133 4.153.133s7.047-.445 7.929.293v3.906s-9.215-1.728-10.7.2S0 3.394 0 3.394z" class="cls-6" transform="translate(24.876 2.753)"/>
            <path id="Path_13-5" d="M1.454 0s1.184 0 1.481 1.728-.2 5.486-1.087 6.721S1.583 4.891.357 3.85 1.454 0 1.454 0z" class="cls-6" transform="translate(24.858 6.641)"/>
            <path id="Path_14-5" d="M6.6 3.906S6.572.938 1.087 0H0s4.25 2.522 5.086 3.906a3.053 3.053 0 0 0 2.62 1.282z" class="cls-6" transform="translate(18.835 0)"/>
            <path id="Path_15-5" d="M5.026 2.666a1.619 1.619 0 0 0-2.123 0 16.7 16.7 0 0 0-2.42 2.42s-1.083-.594 0-2.815S5.225 0 5.225 0z" class="cls-6" transform="translate(19.982 5.193)"/>
            <path id="Path_17-5" d="M10.247 1.649S4.241 8.835 3.525 10.74a37.664 37.664 0 0 0-1.305 5.025s-1.538 2.313-1.992.86A12.523 12.523 0 0 1 1.5 8.538a58.914 58.914 0 0 1 4.742-6.967s2.564-3.475 3.78-.089" class="cls-9" transform="translate(1.808 7.677)"/>
            <path id="Path_18-5" d="M4.662 1.972C5.086.89 4.245.393 3.121.086A2.679 2.679 0 0 0 .06 1.47c-.215.488.14 1.124 1.207 1.589s2.912.153 3.395-1.087z" class="cls-7" transform="translate(13.889 4.433)"/>
        </g>
        <g id="Group_114" transform="matrix(0.966, -0.259, 0.259, 0.966, 1276.468, 652.573)">
            <g id="Ellipse_29-4" class="cls-25" transform="translate(0 0)">
                <circle cx="14.381" cy="14.381" r="14.381" class="cls-30"/>
                <circle cx="14.381" cy="14.381" r="13.381" class="cls-34"/>
            </g>
            <g id="Ellipse_30-4" class="cls-26" transform="translate(3.835 3.835)">
                <circle cx="10.866" cy="10.866" r="10.866" class="cls-30"/>
                <circle cx="10.866" cy="10.866" r="7.866" class="cls-34"/>
            </g>
            <g id="Ellipse_31-4" class="cls-27" transform="translate(2.557 2.557)">
                <circle cx="11.824" cy="11.824" r="11.824" class="cls-30"/>
                <circle cx="11.824" cy="11.824" r="9.824" class="cls-34"/>
            </g>
            <g id="Ellipse_32-4" class="cls-28" transform="translate(5.752 5.752)">
                <circle cx="8.629" cy="8.629" r="8.629" class="cls-30"/>
                <circle cx="8.629" cy="8.629" r="7.129" class="cls-34"/>
            </g>
            <g id="Ellipse_33-4" class="cls-29" transform="translate(10.226 10.226)">
                <circle cx="4.155" cy="4.155" r="4.155" class="cls-30"/>
                <circle cx="4.155" cy="4.155" r="2.655" class="cls-34"/>
            </g>
        </g>
        <g id="Group_115" transform="translate(1120.135 611.263) rotate(84)">
            <path id="Path_3-8" d="M.327 6.306A21.351 21.351 0 0 0 4.1 22.541c5.749 8 20.731 2.179 16.684-8.546A24.379 24.379 0 0 0 7.385 0z" class="cls-2" transform="translate(23.486 31.288)"/>
            <ellipse id="Ellipse_1-8" cx="22.779" cy="17.614" class="cls-3" rx="22.779" ry="17.614" transform="translate(0 10.318) rotate(-13.09)"/>
            <path id="Path_4-8" d="M.063 2.945A2.4 2.4 0 1 0 1.857.063 2.4 2.4 0 0 0 .063 2.945z" class="cls-4" transform="translate(36.787 25.239)"/>
            <path id="Path_5-8" d="M14.971 10.835a5.01 5.01 0 0 0-.219-4.079A14.571 14.571 0 0 0 8.78.7C3.223-2.317-3.4 5.106 2.013 10.147a16.294 16.294 0 0 0 6.977 3.874 5.064 5.064 0 0 0 5.981-3.187z" class="cls-4" transform="translate(26.537 7.553)"/>
        </g>
    </g>
</svg>
