<svg xmlns="http://www.w3.org/2000/svg" width="25.013" height="25" viewBox="0 0 25.013 25">
    <defs>
        <style>
            .cls-1{fill:none;stroke:#2e2e41;stroke-linecap:round;stroke-linejoin:round;stroke-miterlimit:10}
        </style>
    </defs>
    <g id="_16945449851552644365" transform="translate(-3.467 -2.5)">
        <circle id="XMLID_224_" cx="4.416" cy="4.416" r="4.416" class="cls-1" transform="translate(11.558 10.584)"/>
        <path id="XMLID_242_" d="M27.706 9.8l-1-1.6a2.086 2.086 0 0 0-2.726-.676l-.525.281a3 3 0 0 1-4.49-2.4v-.559a1.925 1.925 0 0 0-2-1.846h-2a1.925 1.925 0 0 0-2 1.846v.561a3 3 0 0 1-4.49 2.4l-.525-.281a2.086 2.086 0 0 0-2.711.674l-1 1.6a1.773 1.773 0 0 0 .73 2.522l.531.278a2.67 2.67 0 0 1 0 4.8l-.525.281a1.773 1.773 0 0 0-.73 2.522l1 1.6a2.086 2.086 0 0 0 2.726.676l.525-.281a3 3 0 0 1 4.49 2.4v.561a1.925 1.925 0 0 0 2 1.846h2a1.925 1.925 0 0 0 2-1.846v-.561a3 3 0 0 1 4.49-2.4l.525.281a2.086 2.086 0 0 0 2.726-.676l1-1.6a1.773 1.773 0 0 0-.73-2.522l-.547-.281a2.67 2.67 0 0 1 0-4.8l.525-.281a1.772 1.772 0 0 0 .731-2.519z" class="cls-1"/>
    </g>
</svg>
